<svg id="Layer_1" enable-background="new 0 0 512 512" height="512" viewBox="0 0 512 512" width="512" xmlns="http://www.w3.org/2000/svg"><g><path d="m508.845 290.818c.756-7.838 1.155-15.78 1.155-23.816 0-135.309-109.689-244.998-244.998-244.998s-244.998 109.689-244.998 244.998 109.689 244.998 244.998 244.998c10.406 0 20.659-.654 30.724-1.914z" fill="#37253f"/><path d="m106.697 92.731h-103.27l83.814 69.781 29.758-29.987z" fill="#ff4155"/><path d="" fill="#3d3b3b"/><path d="m298.361 92.731 60.392-69.086c-3.648-2.91-7.516-5.625-11.605-8.113-25.188-15.33-54.355-18.991-80.969-12.399z" fill="#ff7186"/><path d="m3.427 92.731c-3.807 23.586-.08 48.55 12.198 71.068 8.621 15.811 17.629 30.395 26.829 43.844l44.787-45.131z" fill="#e80054"/><path d="m298.361 92.731-10.843 41.882 27.687 27.899 83.814-69.781z" fill="#ff4155"/><path d="" fill="#3d3b3b"/><path d="m106.697 92.731 31.959-88.977c-27.249-7.423-57.414-4.013-83.359 11.778-3.514 2.139-6.862 4.448-10.051 6.901z" fill="#e80054"/><path d="m87.241 162.512 47.833 39.825-18.075-69.812z" fill="#e80054"/><path d="m270.702 199.564 44.503-37.052-27.687-27.899z" fill="#ff7186"/><path d="m135.308 203.242-.234-.905-47.833-39.825-44.787 45.131c13.662 19.974 27.747 37.417 41.624 52.593z" fill="#cc0053"/><path d="m315.205 162.512 44.787 45.131c9.199-13.449 18.208-28.033 26.829-43.844 12.278-22.518 16.005-47.482 12.198-71.068z" fill="#f9a0b1"/><path d="m318.383 260.22c13.872-15.173 27.952-32.61 41.609-52.576l-44.787-45.131-44.503 37.052-.235.907z" fill="#ff4155"/><path d="m137.907 310.126c11.32 8.806 21.707 15.925 30.655 21.555l-10.027-38.729z" fill="#cc0053"/><path d="m237.012 329.692c8.209-5.289 17.505-11.77 27.527-19.566l-18.478-15.384z" fill="#ff4155"/><path d="m116.999 132.525 39.491-39.794h-49.793z" fill="#e80054"/><path d="m202.542 48.95c-.005.007-.009.014-.013.021l43.427 43.761h52.406l-32.183-89.599c-25.451 6.304-48.568 21.982-63.637 45.817z" fill="#ff4155"/><path d="m298.361 92.731h-52.405l41.562 41.882z" fill="#ff7186"/><path d="m156.49 92.731 43.427-43.761c-.004-.007-.009-.014-.013-.021-14.596-23.086-36.743-38.52-61.247-45.195l-31.959 88.977z" fill="#ff4155"/><path d="m270.702 199.564 16.816-64.951-41.562-41.882h-89.466l-39.491 39.794 18.075 69.812 66.149 55.074z" fill="#f9a0b1"/><path d="m135.074 202.337 23.46 90.615 42.689-35.541z" fill="#ff4155"/><path d="m202.529 48.971c-.609.963-2.004.963-2.613 0l-43.426 43.76h89.466z" fill="#ff7186"/><path d="m246.06 294.741 24.642-95.177-69.479 57.847z" fill="#ff4155"/><path d="m201.223 257.411-42.688 35.541 10.027 38.729c9.356 5.887 17.142 10.155 22.758 13.017 6.225 3.172 13.581 3.172 19.806 0 6.232-3.175 15.128-8.074 25.886-15.006l9.049-34.951z" fill="#ff7186"/><path d="m399.019 92.731h-100.658z" fill="#3d3b3b"/><path d="m399.019 92.731c-4.297-26.621-18.197-51.483-40.265-69.086l-60.392 69.086z" fill="#f9a0b1"/><path d="" fill="#3d3b3b"/><path d="" fill="#3d3b3b"/><path d="m3.427 92.731h103.27l-61.452-70.297c-22.968 17.663-37.422 43.058-41.818 70.297z" fill="#cc0053"/><g fill="#3d3b3b"><path d=""/><path d=""/><path d="m106.697 92.731h-103.27z"/></g><path d="m264.539 310.126c16.653-12.955 35.317-29.572 54.357-50.467l-48.193-60.095-24.642 95.177z" fill="#ff7186"/><g><path d="m137.907 310.126c-16.653-12.955-35.317-29.572-54.357-50.467l51.524-57.322 23.46 90.615z" fill="#e80054"/></g><path d="m349.45 380.392h-103.27l83.814 69.781 29.759-29.987z" fill="#ff4155"/><path d="" fill="#3d3b3b"/><path d="m246.18 380.392c-3.807 23.586-.08 48.55 12.198 71.068 8.621 15.811 17.629 30.395 26.829 43.844l44.787-45.131z" fill="#e80054"/><path d="m349.45 380.392 31.959-88.977c-27.249-7.423-57.414-4.013-83.359 11.778-3.514 2.139-6.862 4.448-10.051 6.901z" fill="#e80054"/><path d="m359.753 420.186-29.759 29.988 43.74 36.417c.949-.471 1.903-.932 2.844-1.415z" fill="#e80054"/><path d="m329.994 450.173-44.787 45.131c3.482 5.091 6.992 10.015 10.519 14.782 27.71-3.467 53.974-11.572 78.009-23.496z" fill="#cc0053"/><path d="m359.753 420.186 39.49-39.794h-49.793z" fill="#e80054"/><path d="m445.296 336.611c-.005.007-.009.014-.013.021l39.14 39.441c13.006-26.113 21.491-54.87 24.422-85.255-25.416 6.318-48.498 21.986-63.549 45.793z" fill="#ff4155"/><path d="m399.243 380.392 43.427-43.76c-.004-.007-.009-.014-.013-.021-14.596-23.086-36.743-38.52-61.247-45.195l-31.959 88.977h49.792z" fill="#ff4155"/><path d="m482.219 380.392h-82.976l-39.49 39.794 16.826 64.99c45.138-23.131 82.144-59.866 105.64-104.784z" fill="#f9a0b1"/><path d="m482.219 380.392c.749-1.431 1.482-2.872 2.203-4.32l-39.14-39.441c-.609.963-2.004.963-2.613 0l-43.427 43.76h82.977z" fill="#ff7186"/><path d="m246.18 380.392h103.27l-61.451-70.297c-22.968 17.663-37.422 43.058-41.819 70.297z" fill="#cc0053"/><path d="" fill="#3d3b3b"/><path d="" fill="#3d3b3b"/><path d="m349.45 380.392h-103.27z" fill="#3d3b3b"/><path d="m244.158 511.109c-10.176-17.314-20.6-38.008-28.796-60.936-24-67.142-81.93-75.929-126.481-120.481-21.188-21.188-45.18-21.768-64.52-16.555 20.314 106.597 109.684 188.693 219.797 197.972z" fill="#45304c"/><path d="m461.748 120.992c-10.759 6.773-23.227 19.266-35.052 42.08-21.607 41.685-64.753 94.806-5.71 114.802 40.003 13.547 71.564-15.566 87.764-35.755-4.551-45.114-21.344-86.611-47.002-121.127z" fill="#45304c"/></g></svg>